<?xml version="1.0" standalone="no"?>
<!DOCTYPE svg PUBLIC "-//W3C//DTD SVG 20010904//EN"
 "http://www.w3.org/TR/2001/REC-SVG-20010904/DTD/svg10.dtd">
<svg version="1.0" xmlns="http://www.w3.org/2000/svg"
 width="863.000000pt" height="863.000000pt" viewBox="0 0 863.000000 863.000000"
 preserveAspectRatio="xMidYMid meet">
<metadata>
Created by potrace 1.11, written by Peter Selinger 2001-2013
</metadata>
<g transform="translate(0.000000,863.000000) scale(0.100000,-0.100000)"
fill="#000000" stroke="none">
<path d="M4243 8610 c-46 -31 -61 -69 -78 -200 -3 -19 -12 -75 -20 -125 -9
-49 -18 -103 -20 -120 -3 -16 -7 -41 -10 -55 -7 -35 -48 -233 -60 -291 -2 -9
-8 -33 -13 -53 -6 -20 -8 -36 -6 -36 3 0 0 -8 -5 -17 -5 -10 -11 -31 -14 -48
-4 -26 -12 -60 -32 -145 -2 -8 -15 -58 -30 -110 -14 -52 -28 -105 -30 -116 -3
-12 -14 -52 -26 -89 -11 -38 -22 -75 -24 -84 -7 -36 -126 -384 -168 -492 -117
-301 -262 -560 -371 -663 -40 -37 -102 -66 -144 -66 -65 0 -163 66 -222 150
-13 19 -27 37 -30 40 -13 11 -71 139 -94 207 -14 40 -31 107 -40 150 -33 171
-40 253 -39 478 2 184 0 203 -19 235 -36 61 -85 85 -144 68 -45 -12 -78 -45
-118 -118 -11 -19 -33 -57 -51 -85 -47 -74 -62 -100 -84 -138 -10 -19 -70
-119 -132 -222 -63 -104 -121 -200 -129 -214 -18 -30 -249 -374 -317 -471 -24
-36 -91 -130 -146 -209 -56 -80 -109 -155 -117 -167 -8 -13 -137 -197 -286
-411 -150 -213 -301 -433 -336 -488 -217 -335 -374 -630 -503 -945 -14 -36
-28 -72 -31 -80 -2 -8 -20 -61 -39 -118 -63 -185 -113 -415 -130 -597 -8 -81
-8 -284 -1 -335 3 -19 8 -57 10 -85 3 -27 8 -61 11 -75 6 -31 21 -101 29 -138
12 -55 71 -215 107 -290 166 -347 450 -639 869 -892 86 -52 429 -230 443 -230
3 0 22 -8 43 -17 22 -9 41 -17 44 -17 3 -1 21 -9 40 -18 19 -9 108 -46 196
-82 166 -67 484 -200 519 -216 11 -5 180 -77 375 -159 481 -202 639 -269 676
-286 16 -8 68 -30 114 -50 46 -20 100 -44 119 -53 20 -9 56 -17 81 -17 113 0
160 115 115 285 -15 60 -71 184 -95 213 -6 6 -24 30 -41 52 -92 120 -222 236
-494 439 -454 340 -626 489 -804 696 -201 234 -337 506 -391 786 -51 263 -8
525 133 814 42 87 182 312 206 330 3 3 24 28 46 55 49 62 213 226 279 280 196
160 374 264 661 385 24 10 199 65 235 74 25 6 146 34 184 41 11 3 40 7 65 10
25 3 56 7 69 10 75 14 372 21 463 11 24 -3 87 -10 139 -16 148 -18 431 -90
550 -142 14 -6 39 -16 55 -23 49 -21 258 -126 285 -144 14 -9 33 -20 42 -26
227 -132 525 -424 677 -663 108 -171 215 -425 236 -562 21 -141 26 -295 11
-375 -3 -16 -11 -56 -16 -87 -17 -93 -78 -265 -134 -378 -137 -278 -357 -529
-696 -799 -58 -46 -114 -91 -125 -100 -11 -9 -36 -27 -55 -41 -19 -13 -39 -28
-45 -33 -5 -4 -71 -54 -145 -109 -336 -251 -493 -407 -574 -572 -61 -123 -81
-271 -46 -341 19 -38 75 -75 112 -75 16 0 82 23 146 51 64 28 270 116 457 195
187 80 349 149 360 154 11 5 54 23 95 40 41 17 89 37 105 45 17 7 233 97 480
200 248 103 500 209 560 235 417 184 715 378 965 629 88 89 250 286 250 305 0
3 12 22 26 43 74 109 168 352 204 525 26 130 34 211 33 373 0 498 -189 1056
-571 1690 -89 149 -216 347 -249 390 -5 6 -28 39 -53 75 -24 36 -60 88 -79
115 -19 28 -63 91 -98 140 -105 151 -299 427 -353 505 -93 131 -396 573 -456
665 -57 87 -438 716 -471 778 -50 93 -161 106 -225 26 l-30 -37 -3 -253 c-2
-140 -6 -267 -9 -284 -3 -16 -11 -59 -17 -95 -26 -154 -94 -356 -135 -401 -8
-8 -14 -20 -14 -26 0 -5 -28 -39 -62 -75 -166 -171 -287 -140 -453 117 -150
230 -290 573 -434 1060 -11 39 -30 101 -41 139 -11 37 -22 78 -24 90 -2 11
-20 84 -39 161 -19 77 -37 154 -40 170 -2 17 -12 59 -21 95 -8 36 -18 76 -20
90 -2 14 -11 59 -20 100 -8 41 -17 89 -20 105 -3 17 -10 57 -16 90 -6 33 -19
115 -30 182 -10 67 -24 134 -32 149 -32 65 -126 93 -185 54z"/>
<path d="M4228 3565 c-2 -1 -37 -5 -79 -8 -299 -23 -625 -169 -806 -361 -96
-102 -117 -132 -171 -241 -57 -115 -82 -238 -77 -375 22 -528 579 -935 1255
-915 125 4 157 7 260 26 375 70 684 277 828 554 30 58 59 129 68 170 16 70 21
114 23 192 6 287 -149 553 -431 739 -53 35 -101 64 -107 64 -5 0 -25 9 -43 19
-18 11 -78 35 -133 54 -108 37 -174 53 -309 72 -42 6 -273 14 -278 10z"/>
</g>
</svg>
