<svg id="logo" xmlns="http://www.w3.org/2000/svg" viewBox="0 0 198.38 207.08"><defs><style>.cls-1{fill:#ba1c22;}</style></defs><path class="cls-1" d="M256.21,133.72c-15.23-22-22.32-31.36-28.58-42-2.43-4.13-4.73-8-7.34-12.23a3,3,0,0,0-3.7-1.35,3.67,3.67,0,0,0-2.15,3.66c.94,16.73-3.51,25.3-8.37,27.73-2,1-4.1.33-6.13-2-9.63-11.22-17.25-44.14-19.37-60a3.18,3.18,0,0,0-6.36,0c-2.12,15.82-9.74,48.75-19.37,60-2,2.37-4.09,3-6.13,2-4.87-2.43-9.31-11-8.38-27.73a3.66,3.66,0,0,0-2.14-3.66,3,3,0,0,0-3.7,1.35c-2.61,4.2-4.91,8.1-7.34,12.23-6.26,10.62-13.35,20-28.59,42-17.07,24.64-23.31,44.75-19.08,61.48,3.83,15.14,15.88,26.72,36.86,35.39,21.17,8.74,41.53,17.39,49,20.7a3,3,0,0,0,1.18.25,3,3,0,0,0,1.81-.63,3.78,3.78,0,0,0,1.4-3c0-8.57-7.88-14.46-17-21.28-11.48-8.58-24.5-18.3-27.42-35.38-1.34-7.84,1.35-17.06,7.38-25.3a56.15,56.15,0,0,1,89.48,0c6,8.24,8.71,17.46,7.38,25.3-2.92,17.08-15.94,26.8-27.43,35.38-9.12,6.82-17,12.71-17,21.28a3.79,3.79,0,0,0,1.41,3,2.91,2.91,0,0,0,3,.38c7.45-3.31,27.81-12,49-20.7,21-8.67,33-20.25,36.86-35.39C279.53,178.47,273.29,158.36,256.21,133.72Z" transform="translate(-78.2 -44.46)"/><path class="cls-1" d="M206.61,188.82c0-12.78-12.83-22.8-29.22-22.8s-29.23,10-29.23,22.8,12.84,22.81,29.23,22.81S206.61,201.61,206.61,188.82Z" transform="translate(-78.2 -44.46)"/></svg>